<svg width="457" height="352" viewBox="0 0 457 352" fill="none" xmlns="http://www.w3.org/2000/svg">
<path d="M152.3 55.7002L149.5 60.6002H146.8L145.9 62.0002H148.7L142.6 72.4002C141.3 74.6002 142.2 76.6002 144.7 76.6002C146.5 76.6002 148.4 75.3002 150.3 73.5002C150.3 77.3002 155.6 78.0002 158.9 74.0002H159.6C161.4 74.0002 164.2 72.9002 165.8 71.1002C165.6 70.7002 165.1 70.2002 164.7 70.1002L164.5 70.3002C163.1 71.8002 161.5 72.5002 159.9 72.5002L162.7 67.7002C164.5 64.6002 162.8 61.6002 160 61.6002C157.7 61.6002 155.9 62.5002 154.1 65.5002L152.6 68.1002L151.4 70.2002L151.2 70.4002C149 72.9002 146.9 74.9002 145.6 74.9002C144.9 74.9002 144.6 74.4002 145.3 73.3002L151.8 62.1002H154.3L155 60.6002H152.5L155.3 55.7002H152.3ZM159.8 63.5002C160.8 63.6002 161.2 64.8002 160.2 66.5002L158 70.2002H157.9C156.9 70.2002 156.1 71.0002 156.1 72.0002C156.1 72.4002 156.2 72.7002 156.4 73.0002V73.1002C155 75.5002 151.5 75.1002 153.3 72.0002L155.6 68.1002L157.1 65.7002C158 64.1002 159.1 63.5002 159.8 63.5002ZM181.8 55.7002L179 60.6002H176.3L175.4 62.0002H178.2L172 72.4002C170.7 74.6002 171.6 76.6002 174.1 76.6002C175.3 76.6002 176.6 76.0002 178 75.0002L177.2 76.3002H180.2L184.8 68.4002C189.4 62.6002 191.5 63.4002 190.2 65.6002L186.3 72.3002C185 74.5002 185.9 76.5002 188.4 76.5002C190.2 76.5002 192.2 75.1002 194.1 73.3002C194.2 75.2002 195.8 76.5002 198.2 76.5002C201.6 76.5002 205 73.9002 207.5 71.0002C207.3 70.6002 206.8 70.1002 206.4 70.0002L206.2 70.2002C204 72.7002 201.2 74.7002 199.1 74.7002C197.2 74.7002 196.1 73.6002 197.5 71.1002L197.8 70.6002C199.7 71.4002 203.4 71.0002 205.7 67.2002L206.1 66.5002C207.7 63.7002 206.2 61.7002 203.7 61.7002C201.3 61.7002 199.3 63.0002 198 65.1002L195.1 70.1002L194.9 70.3002C192.7 72.8002 190.6 74.8002 189.3 74.8002C188.6 74.8002 188.3 74.3002 188.9 73.2002L193.3 65.7002C194.6 63.4002 193.4 61.8002 191.7 61.8002C190.4 61.8002 189 62.5002 187.5 64.1002L192.3 55.8002H189.3L180.9 70.2002L180.7 70.4002C178.5 72.9002 176.4 74.9002 175.1 74.9002C174.4 74.9002 174.1 74.4002 174.8 73.3002L181.3 62.1002H183.8L184.7 60.7002H182.2L185 55.8002L181.8 55.7002ZM203.1 63.9002C204.1 63.8002 204.6 64.8002 203.6 66.5002L203.2 67.2002C201.8 69.6002 199.8 69.6002 198.7 69.2002L200.6 65.8002C201.3 64.6002 202.3 64.0002 203.1 63.9002ZM247.4 58.5002C245.7 60.0002 245.5 61.7002 246.6 63.1002L246.9 63.4002C245.6 65.3002 243.8 67.8002 241.8 70.1002L241.6 70.3002C240.2 71.8002 238.6 72.5002 237 72.5002L239.8 67.7002C241.6 64.6002 239.9 61.6002 237.1 61.6002C234.8 61.6002 233 62.5002 231.2 65.5002L229.7 68.1002L228.5 70.2002L228.3 70.4002C225.8 73.2002 223.7 75.1002 221.3 76.1002L228.1 64.7002H226.3C226.3 63.5002 225 61.8002 223.1 61.8002C221.5 61.8002 219.2 63.1002 217.9 65.2002L213.7 72.4002C212.4 74.6002 213.3 76.6002 215.8 76.6002C216.6 76.6002 217.7 76.2002 218.7 75.6002L217.9 77.0002C213.8 78.2002 211.3 79.9002 211.3 82.1002C211.3 85.0002 215.7 85.6002 217.9 81.9002L220.2 78.0002C222.6 77.3002 225 75.9002 227.4 73.5002C227.4 77.3002 232.7 78.1002 236 74.0002H236.7C238.5 74.0002 241.3 72.9002 242.9 71.1002C244.3 69.4002 245.5 67.9002 247.9 64.7002L248.3 65.2002C248.7 65.7002 248.8 66.3002 248.5 66.9002L245.3 72.4002C244 74.6002 244.9 76.6002 247.4 76.6002C248.9 76.6002 250.6 75.6002 252.2 74.2002C252.1 75.6002 253.1 76.6002 254.8 76.6002C255.6 76.6002 256.7 76.2002 257.7 75.6002L256.9 77.0002C252.8 78.2002 250.3 79.9002 250.3 82.1002C250.3 85.0002 254.7 85.6002 256.9 81.9002L259.2 78.0002C261.7 77.2002 264.1 75.8002 266.6 73.4002C266.7 75.3002 268.3 76.6002 270.7 76.6002C273.2 76.6002 275.6 75.2002 277.7 73.4002C277.6 77.3002 283 78.1002 286.3 74.0002H287C287.9 74.0002 289.2 73.7002 290.4 73.1002C289.6 75.2002 290.3 76.6002 292.1 76.6002C293.8 76.6002 295.6 75.1002 297.1 73.7002C296.8 75.3002 297.8 76.6002 299.7 76.6002C302.2 76.6002 305.1 74.0002 307.6 71.1002C309.3 69.1002 310.8 67.1002 311.9 65.7002C310.7 68.8002 311.3 74.4002 308.5 74.4002C307.5 74.4002 307.1 73.3002 307.1 73.3002L305.2 74.3002C305.2 74.3002 305.8 76.7002 308.5 76.7002C308.8 76.7002 309.1 76.7002 309.3 76.6002H309.4C312.5 76.2002 315.5 73.8002 317.8 71.2002C317.6 70.7002 317.1 70.3002 316.7 70.2002L316.5 70.4002C315.4 71.6002 314.2 72.7002 312.9 73.6002C313.9 70.8002 313.7 66.4002 315.5 62.6002L313.2 61.4002C312 63.1002 309.2 67.0002 306.5 70.1002L306.3 70.3002C304.1 72.8002 302 74.8002 300.7 74.8002C300 74.8002 299.7 74.3002 300.4 73.2002L306.8 62.0002H303.8L298.4 71.3002C296.1 73.4002 294.3 74.5002 293.8 74.3002C293 74.0002 293.8 72.9002 294.2 72.2002L300.1 62.0002H297.1L292.4 70.1002L292.2 70.3002C290.8 71.8002 289.2 72.5002 287.6 72.5002L290.4 67.7002C292.2 64.6002 290.5 61.6002 287.7 61.6002C285.4 61.6002 283.6 62.5002 281.8 65.5002L280.3 68.1002L279.1 70.2002L278.9 70.4002C276.7 72.9002 273.9 74.9002 271.8 74.9002C269.9 74.9002 268.8 73.8002 270.2 71.3002L270.5 70.8002C272.4 71.6002 276.1 71.2002 278.4 67.4002L278.8 66.7002C280.4 63.9002 278.9 61.9002 276.4 61.9002C274 61.9002 272 63.2002 270.7 65.3002L267.8 70.3002L267.6 70.5002C265.1 73.3002 263 75.2002 260.6 76.2002L267.4 64.8002H265.6C265.6 63.6002 264.3 61.9002 262.4 61.9002C260.8 61.9002 258.5 63.2002 257.2 65.3002L254.3 70.2002L254.1 70.4002C251.9 72.9002 249.8 74.9002 248.5 74.9002C247.8 74.9002 247.5 74.4002 248.2 73.3002L251.2 68.1002C252.2 66.3002 251.8 65.2002 250.8 64.1002L249.1 62.1002C248.7 61.6002 248.7 61.0002 249.3 60.4002L247.4 58.5002ZM237.1 63.5002C238.1 63.6002 238.6 64.8002 237.5 66.5002L235.3 70.2002H235.2C234.2 70.2002 233.4 71.0002 233.4 72.0002C233.4 72.4002 233.5 72.7002 233.7 73.0002V73.1002C232.3 75.5002 228.8 75.1002 230.6 72.0002L232.9 68.1002L234.4 65.7002C235.3 64.1002 236.3 63.5002 237.1 63.5002ZM287.3 63.5002C288.3 63.6002 288.8 64.8002 287.7 66.5002L285.5 70.2002H285.4C284.4 70.2002 283.6 71.0002 283.6 72.0002C283.6 72.4002 283.7 72.7002 283.9 73.0002V73.1002C282.5 75.5002 279 75.1002 280.8 72.0002L283.1 68.1002L284.6 65.7002C285.4 64.1002 286.5 63.5002 287.3 63.5002ZM275.6 63.9002C276.6 63.8002 277.1 64.8002 276.1 66.5002L275.7 67.2002C274.2 69.6002 272.3 69.6002 271.2 69.2002L273.1 65.8002C273.8 64.6002 274.8 64.0002 275.6 63.9002ZM223.2 64.1002C224.2 64.1002 224.9 65.0002 224 66.5002L221.7 70.5002C219.9 73.4002 218 74.8002 216.8 74.8002C216.1 74.8002 215.8 74.3002 216.5 73.2002L220.7 65.9002C221.4 64.7002 222.4 64.1002 223.2 64.1002ZM262.1 64.1002C263.1 64.1002 263.8 65.0002 262.9 66.5002L260.6 70.5002C258.8 73.4002 256.9 74.8002 255.7 74.8002C255 74.8002 254.7 74.3002 255.4 73.2002L259.6 65.9002C260.3 64.7002 261.3 64.1002 262.1 64.1002ZM216.8 79.0002L215.4 81.4002C214.8 82.5002 213.7 82.3002 213.7 81.5002C213.7 80.8002 214.5 79.9002 216.8 79.0002ZM255.7 79.0002L254.3 81.4002C253.7 82.5002 252.6 82.3002 252.6 81.5002C252.7 80.8002 253.4 79.9002 255.7 79.0002ZM101 67.4002H129.9V69.3002H101V67.4002ZM328.1 67.4002H357V69.3002H328.1V67.4002Z" fill="#766458"/>
<path d="M322.7 37V44.7H301.9V0H322.7V7.6H309.5V18.4H320V26.1H309.5V37H322.7ZM289.9 0H297.5V44.7H289.9V22.7L286.9 34.1H279.5L276.5 22.7V44.7H268.9V0H276.5L283.3 21.6L289.9 0ZM258 7.6H252.5V36.9H258V7.6ZM261 0C263.5 0 265.7 2.1 265.7 4.7V40C265.7 42.6 263.5 44.7 261 44.7H249.6C247 44.7 244.9 42.5 244.9 40V4.7C244.9 2.1 247 0 249.6 0H261ZM233 28.2L240.7 26.4V40C240.7 42.6 238.5 44.7 236 44.7H224.6C222 44.7 219.9 42.5 219.9 40V4.7C219.9 2.1 222 0 224.6 0H236C238.5 0 240.7 2.1 240.7 4.7V13.8L233 15.6V7.6H227.5V36.9H233V28.2ZM216.2 37V44.7H198V0H205.6V37H216.2ZM194.8 37V44.7H174V0H194.8V7.6H181.6V18.4H192.1V26.1H181.6V37H194.8ZM162.6 0H170.3L169 44.7H154.5L152.5 26.2L150.5 44.7H136L135 0H142.6L143.2 37H144L148.8 0H156.4L161.3 37H162.1L162.6 0Z" fill="#81B3D3"/>
<path d="M380.4 214.3L405.8 140.3H431L456.7 214.3H436.5L432.8 200.9H404.2L400.4 214.3H380.4ZM416.1 162.2L408.6 186.7H428.7L421.2 162.2C420.8 161 420.4 159.8 420 158.6C419.7 157.3 419.4 156.1 419.2 154.8C419 154.3 418.9 153.9 418.9 153.5C418.8 153 418.7 152.6 418.7 152.2C418.6 152.6 418.5 153 418.4 153.5C418.3 153.9 418.2 154.3 418.2 154.8C418.1 155 418.1 155.1 418.1 155.3C418.1 155.4 418.1 155.5 418 155.6C417.8 156.7 417.5 157.9 417.2 159C416.7 160 416.4 161.1 416.1 162.2ZM298.4 214.3V140.3H317.9L345.8 178.3C346.5 179.4 347.2 180.6 347.8 181.8C348.5 183 349.2 184.2 349.8 185.4L351.2 188.4C351.7 189.4 352.1 190.4 352.6 191.3C352.5 190.5 352.4 189.7 352.3 188.9C352.2 188.1 352.1 187.3 352.1 186.5C351.9 184.9 351.8 183.3 351.8 181.7C351.7 180 351.7 178.4 351.7 176.7V140.4H371.1V214.4H351.7L323.6 176.2C322.8 175.3 322.1 174.2 321.4 172.9C320.7 171.6 320 170.2 319.4 168.8C319 167.8 318.5 166.9 318 165.9C317.6 165 317.3 164 316.8 163.1C317.2 165.5 317.5 167.9 317.7 170.4C317.9 172.9 318 175.4 318 177.8V214.3H298.4ZM210.4 159.4C214 152.8 218.9 147.8 225.3 144.3C231.7 140.8 238.3 139.1 245.2 139.1C246.1 139.1 247.1 139.1 248 139.2C249 139.3 250 139.4 250.9 139.4C253.8 139.8 256.6 140.5 259.4 141.5C262.3 142.5 265 143.8 267.5 145.4C273 149 277.3 153.7 280.3 159.7C283.3 165.6 284.8 171.7 284.8 178.2C284.8 179 284.8 179.8 284.7 180.6C284.7 181.4 284.6 182.1 284.5 182.9C284.3 184.6 284 186.2 283.6 187.8C283.2 189.4 282.7 190.9 282.1 192.4C278.8 199.9 273.8 205.8 266.9 209.9C260 214 252.8 216.1 245.2 216.1C244.7 216.1 244.1 216.1 243.6 216H242.1C239.4 215.8 236.8 215.3 234.2 214.6C231.6 213.9 229.1 212.9 226.8 211.7C220.3 208.3 215.2 203.5 211.5 197.2C207.8 190.9 205.9 184.3 205.9 177.5C205.9 176.5 205.9 175.5 206 174.5C206.1 173.5 206.2 172.4 206.5 171.4C206.9 169.4 207.4 167.3 208.1 165.4C208.5 163.2 209.4 161.3 210.4 159.4ZM263.2 186C263.4 185.2 263.6 184.4 263.8 183.6C264 182.7 264.2 181.9 264.3 181C264.4 180.5 264.4 179.9 264.4 179.4C264.5 178.9 264.5 178.4 264.5 177.9C264.5 177.4 264.5 177 264.4 176.5V175.1C264 171.8 263 168.6 261.4 165.5C259.8 162.4 257.5 160 254.7 158.3C253.9 157.9 253.2 157.6 252.4 157.3C251.6 157 250.9 156.7 250.1 156.5C249.3 156.3 248.6 156.2 247.8 156.2C247 156 246.3 156 245.5 156C241.6 156 237.9 157.2 234.6 159.7C231.3 162.2 228.9 165.5 227.6 169.6L227.4 170.1V170.6C227.2 171.3 227 172.1 226.8 172.8C226.6 173.5 226.5 174.2 226.3 175L226.1 176.6V179C226.1 179.2 226.1 179.5 226.2 179.8C226.4 183.9 227.7 187.8 229.9 191.5C232.2 195.1 235.4 197.5 239.4 198.7L240.8 199.2C241.3 199.3 241.8 199.4 242.3 199.4L243.7 199.6H245.1C249.2 199.6 252.9 198.4 256.1 196C259.4 193.4 261.8 190.1 263.2 186ZM181.1 207.4C177.5 209.9 173.5 211.6 169.3 212.5C165.1 213.4 160.7 214 156.4 214.2C155.2 214.3 153.9 214.3 152.7 214.3H128.9V140.3H154C155.2 140.3 156.4 140.3 157.6 140.4C161.8 140.6 165.9 141.2 169.9 142.1C174 143 177.8 144.8 181.2 147.2C185.5 150.2 188.9 154.2 191.3 159.2C193.7 164.2 195.1 169.3 195.4 174.5C195.5 175 195.5 175.4 195.5 175.9V178.8C195.3 184.3 194 189.6 191.6 194.7C189.2 199.8 185.6 204.1 181.1 207.4ZM148.7 197.7C148.9 197.7 149.2 197.7 149.4 197.8H150.2C150.5 197.8 150.8 197.8 151 197.9H154.1C155 197.8 155.8 197.7 156.5 197.7C158.5 197.5 160.5 197.2 162.4 196.7C164.3 196.2 166.1 195.3 167.6 194.3C170.1 192.5 171.9 190.1 173.1 187.1C174.3 184 175 180.8 175 177.5V176.6C175 176.3 175 176 174.9 175.7C174.7 172.8 174 169.9 172.8 167.2C171.6 164.4 169.9 162.2 167.7 160.6C166.1 159.3 164.2 158.4 162.2 157.9C160.2 157.4 158.2 157.2 156.2 157.1H148.7V197.7ZM68.8 214.3V140.3H114.2V156.4H88.6V169.4H112.6V185.2H88.6V197.7H114.1V214.3H68.8ZM9.4 190.5C9.5 190.6 9.5 190.7 9.5 190.7C9.6 190.7 9.7 190.7 9.7 190.8C11.8 193.1 14.2 195.3 16.8 197.3C19.4 199.2 22.5 200.3 25.9 200.4C26 200.4 26.1 200.4 26.1 200.5H26.4C26.5 200.5 26.6 200.5 26.6 200.6H27.9C28.3 200.5 28.6 200.4 28.9 200.4C30.1 200.2 31.3 199.7 32.4 199C33.6 198.3 34.5 197.5 35.1 196.4L35.3 195.9L35.5 195.4C35.7 194.9 35.8 194.4 35.8 193.9C35.9 193.4 35.9 193 35.9 192.6C35.9 190.5 35 188.8 33.1 187.4C31.4 186 29.4 184.8 27.3 184C26.5 183.7 25.7 183.5 24.9 183.3C24.2 183.1 23.4 182.9 22.7 182.7H22.5C22.4 182.6 22.3 182.6 22.3 182.6C18.5 181.7 14.9 180.2 11.6 178.2C8.3 176.1 6 173.1 4.7 169.3C4.5 168.5 4.2 167.7 4 166.9C3.8 166 3.7 165.1 3.7 164.2C3.7 164.1 3.7 163.8 3.7 163.6V160.8C3.8 160.2 3.9 159.6 4 158.9C4.2 157.3 4.6 155.8 5.2 154.3C5.7 152.8 6.4 151.4 7.3 150.1C9.8 146 13 143.1 16.8 141.3C20.7 139.5 24.9 138.6 29.1 138.6C30.1 138.6 31.1 138.7 32.1 138.8C33.2 138.9 34.3 139 35.4 139.1C38.2 139.6 41 140.4 43.6 141.4C46.4 142.5 48.9 143.8 51.3 145.2L44.9 159.5C42.8 158 40.6 156.6 38.3 155.4C36 154.2 33.5 153.7 30.8 153.7H29.9C28.1 153.9 26.5 154.7 24.9 156.1C23.4 157.4 22.6 158.8 22.6 160.4V161.1C22.7 161.3 22.8 161.6 22.9 161.8C23.1 162.3 23.3 162.8 23.7 163.3C24.1 163.8 24.5 164.2 25 164.6C25.9 165.3 27.1 166 28.7 166.6C30.3 167.1 32 167.7 33.8 168.2C35.3 168.6 36.7 169 38.1 169.4C39.5 169.7 40.7 170 41.6 170.3C45.9 171.8 49.2 174.4 51.4 178.1C53.6 181.7 54.7 185.5 54.8 189.5V190.1C54.8 190.6 54.8 191 54.7 191.5V192.8C54.2 196.8 52.9 200.7 50.8 204.3C48.7 207.9 45.9 210.7 42.3 212.7C41 213.3 39.6 213.9 38.2 214.3C36.8 214.7 35.4 215 34 215.3C32.9 215.5 31.7 215.7 30.5 215.8C29.4 216 28.3 216 27.1 216H25.7C21.1 215.8 16.5 214.8 12 213C7.5 211.1 3.5 208.5 0 205.3L9.4 190.5ZM351 337.6C351 337.3 351.1 337 351.2 336.7C351.3 336.4 351.5 336.1 351.7 335.9C351.9 335.7 352.2 335.5 352.5 335.3C352.8 335.2 353.2 335.1 353.6 335.1C354.1 335.1 354.5 335.2 354.9 335.4C355.3 335.6 355.7 335.8 356 336.1C356.2 336.4 356.4 336.7 356.6 337.1C356.7 337.5 356.8 337.9 356.8 338.4C356.8 339.3 356.6 340 356.3 340.8C356 341.5 355.6 342.2 355 342.7C354.7 343 354.5 343.2 354.2 343.4C353.9 343.6 353.6 343.8 353.3 343.9C353 344 352.8 344.2 352.6 344.3C352.5 344.4 352.4 344.4 352.2 344.5L350.8 342.5C351 342.4 351.3 342.3 351.6 342.1C351.9 342 352.2 341.8 352.5 341.6C352.8 341.4 353 341.1 353.2 340.8C353.4 340.5 353.5 340.2 353.5 339.8C352.9 339.8 352.3 339.6 351.8 339.2C351.2 338.9 351 338.4 351 337.6ZM358.8 337.6C358.8 337.3 358.9 337 359 336.7C359.1 336.4 359.3 336.1 359.5 335.9C359.7 335.7 360 335.5 360.3 335.3C360.6 335.2 361 335.1 361.4 335.1C361.9 335.1 362.3 335.2 362.7 335.4C363.1 335.6 363.5 335.8 363.8 336.1C364 336.4 364.2 336.7 364.4 337.1C364.5 337.5 364.6 337.9 364.6 338.4C364.6 339.2 364.5 340 364.1 340.8C363.8 341.5 363.4 342.2 362.8 342.7C362.5 343 362.3 343.2 362 343.4C361.7 343.6 361.4 343.8 361.1 343.9C360.8 344 360.6 344.2 360.4 344.3C360.3 344.4 360.2 344.4 360 344.5L358.7 342.5C358.9 342.4 359.2 342.3 359.5 342.1C359.8 342 360.1 341.8 360.4 341.6C360.7 341.4 360.9 341.1 361.1 340.8C361.3 340.5 361.4 340.2 361.4 339.8C360.8 339.8 360.2 339.6 359.7 339.2C359 338.9 358.8 338.4 358.8 337.6ZM94.2 278.9C94.2 279.2 94.1 279.5 94 279.8C93.9 280.1 93.7 280.4 93.5 280.6C93 281.1 92.3 281.4 91.6 281.4C91.2 281.4 90.7 281.3 90.3 281.1C89.9 280.9 89.5 280.7 89.2 280.4C88.9 280.1 88.7 279.7 88.6 279.4C88.5 279 88.4 278.6 88.4 278.1C88.4 277.2 88.6 276.5 88.9 275.7C89.2 275 89.6 274.3 90.2 273.8C90.5 273.5 90.7 273.3 91 273.1C91.3 272.9 91.6 272.7 91.9 272.6C92.2 272.5 92.4 272.3 92.6 272.2C92.8 272.1 92.9 272.1 93 272L94.3 274C94 274.1 93.7 274.2 93.5 274.4C93.2 274.5 92.9 274.7 92.6 274.9C92.3 275.1 92.1 275.4 91.9 275.7C91.7 276 91.6 276.3 91.6 276.7C92.3 276.7 92.8 276.9 93.3 277.3C94 277.7 94.2 278.2 94.2 278.9ZM86.4 278.9C86.4 279.5 86.2 280.1 85.7 280.6C85.5 280.8 85.2 281 84.9 281.2C84.6 281.3 84.2 281.4 83.8 281.4C83.4 281.4 82.9 281.3 82.5 281.1C82.1 280.9 81.7 280.7 81.4 280.4C81.1 280.1 80.9 279.7 80.8 279.4C80.7 279 80.6 278.6 80.6 278.1C80.6 277.2 80.8 276.5 81.1 275.7C81.4 275 81.8 274.3 82.4 273.8C82.6 273.6 82.9 273.3 83.2 273.1C83.5 272.9 83.8 272.7 84.1 272.6C84.4 272.5 84.6 272.3 84.8 272.2C85 272.1 85.1 272.1 85.2 272L86.5 274C86.3 274.1 86 274.2 85.7 274.4C85.4 274.5 85.1 274.7 84.8 274.9C84.5 275.1 84.3 275.4 84.1 275.7C83.9 276 83.8 276.3 83.8 276.7C84.5 276.7 85 276.9 85.5 277.3C86.1 277.7 86.4 278.2 86.4 278.9ZM331.7 335.8H335.5L347.3 315.2H343.5L331.7 335.8ZM331.6 337.3C330.4 337.3 329.4 338.3 329.4 339.5C329.4 340.7 330.3 341.7 331.6 341.7C332.8 341.7 333.8 340.8 333.8 339.5C333.8 338.2 332.8 337.3 331.6 337.3ZM305.2 331.8L306.3 329.9C310.7 323.8 313.6 325.5 312.3 327.8L310.5 330.9C309.4 332.8 306 334.2 305.2 331.8ZM330.3 334.7C330.1 334.1 329.4 333.5 328.9 333.4L328.6 333.7C327.3 335.3 325.7 336.6 324.1 337.8C325.3 334.2 325 328.7 327.4 323.8L324.6 322.3C323 324.4 319.6 329.4 316.2 333.4L315.9 333.7C313.2 336.9 310.5 339.4 308.9 339.4C308.1 339.4 307.3 338.6 307.3 336.9V335.3C310 335.6 312.8 333.9 314.5 330.8L315.5 329.1C319 323.1 313.3 321.1 309.4 324.6L314.8 315.3H311L300.2 334C300 333.8 299.8 333.7 299.5 333.5L299.2 333.8C296.5 337 293 339.5 290.3 339.5C288 339.5 286.6 338 288.3 335L292.2 328.2C294.4 324.5 298.2 325.1 296 329L295.5 329.9H298.6L299.1 329C301.1 325.5 299.2 322.9 296.1 322.9C293 322.9 290.6 324.5 289 327.3L285.3 333.7C285.2 333.7 285.1 333.6 285.1 333.6L284.8 333.9C282.1 337.1 279.4 339.6 277.8 339.6C277 339.6 276.5 339 277.4 337.5L285.5 323.4H281.7L275 335.1C272.1 337.7 269.9 339.2 269.2 338.8C268.3 338.4 269.2 337 269.7 336.2L277.1 323.3H273.3L266 336C265.2 336.7 263.6 337.4 262.8 337.9C264 334.3 263.7 328.8 266.1 323.9L263.3 322.4C261.7 324.5 253 336.1 249.6 340.1C249.9 340.6 250.5 341 251 341.4C253.1 338.9 260.3 329.7 261.7 327.9C260.2 331.8 261 338.9 257.4 338.9C256.1 338.9 255.6 337.5 255.6 337.5L253.2 338.7C253.2 338.7 253.9 341.7 257.3 341.7C257.7 341.7 258 341.7 258.4 341.6H258.5C260.4 341.3 263.1 340.5 264.9 339.2C264.9 340.7 265.8 341.7 267.4 341.7C269.5 341.7 271.8 339.8 273.6 338.1C273.2 340.1 274.4 341.7 276.8 341.7C279.1 341.7 281.8 339.8 284.2 337.3C284.2 339.8 286.2 341.7 289.3 341.7C292.4 341.7 295.4 340 298 337.7L295.9 341.4H299.7L304 333.9V336.9C304 340.1 304.6 341.8 307.7 341.8C310.8 341.8 314.4 338.5 317.5 334.8C319.6 332.3 321.5 329.7 322.9 327.9C321.4 331.8 322.2 338.9 318.6 338.9C317.3 338.9 316.8 337.5 316.8 337.5L314.4 338.7C314.4 338.7 315.1 341.7 318.5 341.7C318.9 341.7 319.2 341.7 319.6 341.6H319.7C323.7 341.1 327.5 338 330.3 334.7ZM215.7 333.6H215.5C214.3 333.6 213.3 334.6 213.3 335.9C213.3 336.4 213.4 336.8 213.7 337.2V337.3C211.9 340.3 207.6 339.8 209.8 335.8L212.7 330.8L214.5 327.7C217.2 323.2 220.8 325 218.5 328.9L215.7 333.6ZM190.3 347.8C189.5 349.2 188.2 349 188.2 348C188.2 347 189.1 345.9 192 344.8L190.3 347.8ZM161.5 334C159.2 337.6 157 339.3 155.4 339.3C154.6 339.3 154.1 338.7 155 337.2L160.3 328C162.3 324.5 166.4 325.4 164.5 328.8L161.5 334ZM149.5 319.3C150.6 317.4 151.9 316.5 152.9 316.5C154.3 316.5 155 317.4 155 318.8C155 322.3 150.6 329.6 144.8 328.7H144L149.5 319.3ZM242.3 333.4L242 333.7C239.3 336.9 236.6 339.4 235 339.4C234.2 339.4 233.7 338.8 234.6 337.3L240 327.7C241.6 324.8 240.1 322.8 238 322.8C236.4 322.8 234.7 323.7 232.8 325.6L234.2 323.1H230.4L224.3 333.6C224.1 333.5 224 333.4 223.8 333.3L223.5 333.6C221.8 335.5 219.7 336.4 217.8 336.4L221.4 330.3C223.7 326.3 221.6 322.6 218 322.6C215.1 322.6 212.8 323.8 210.7 327.5L208.8 330.7L207.2 333.5C207.1 333.4 207 333.4 206.9 333.3L206.6 333.6C203.5 337.2 200.8 339.5 197.8 340.8L208.2 323.1H204.4L197.7 334.7C194.8 337.4 192.5 338.9 191.8 338.6C190.9 338.2 191.8 336.8 192.3 336L199.7 323.1H195.9L189.9 333.5C189.8 333.4 189.7 333.4 189.6 333.3L189.3 333.6C186.6 336.8 183.9 339.3 182.3 339.3C181.5 339.3 181 338.7 181.9 337.2L187.3 327.6C188.9 324.7 187.4 322.7 185.3 322.7C183.7 322.7 182 323.6 180.1 325.5L181.5 323H177.7L171.7 333.4C171.6 333.3 171.5 333.3 171.3 333.2L171 333.5C168.3 336.7 165.6 339.2 164 339.2C163.2 339.2 162.7 338.6 163.6 337.1L169.7 326.4H167.6C167.7 324.8 166.1 322.6 163.6 322.6C161.6 322.6 158.7 324.2 157.1 327L153.2 333.7C152.9 333.5 152.6 333.3 152.4 333.2L152.1 333.5C149.4 336.7 147.3 339.2 143.5 339.2C140.9 339.2 139.4 336.6 141.6 332.8L142.7 330.9C143.4 331 144.1 331.1 144.8 331.1C148.8 331.1 153.4 329 156.4 323.8C157.5 321.9 157.9 320.2 157.9 318.7C157.9 315.3 155.7 313.1 152.9 313.1C150.8 313.1 148.4 314.6 146.7 317.5L140.8 327.6C138.6 326.4 137.4 324.3 137.4 322.2C137.4 320.5 138.2 318.7 139.8 317.4L138.6 315.2C135.9 317.1 134.7 319.7 134.7 322.2C134.7 325.2 136.4 328.1 139.5 329.7L138.4 331.7C135.7 336.3 137.3 341.4 142.6 341.4C146.8 341.4 148.7 339.5 151.3 337C150.5 339.4 151.7 341.4 154.3 341.4C155.8 341.4 157.7 340.4 159.5 338.9C159.7 340.4 160.8 341.4 162.8 341.4C164.6 341.4 166.6 340.3 168.5 338.6L167.1 341H170.9L176.7 330.9C182.5 323.7 185.1 324.6 183.4 327.4L178.5 335.9C176.9 338.7 178 341.3 181.1 341.3C183.1 341.3 185.4 339.9 187.5 337.9C187 340 188 341.3 189.9 341.3C191.7 341.3 193.8 339.8 195.5 338.3L193.4 341.9C188.3 343.4 185.1 345.5 185.1 348.4C185.1 352 190.7 352.8 193.4 348.1L196.3 343.1C199.5 342.1 202.6 340.1 205.8 336.9C205.3 342.2 212.3 343.4 216.5 338H217.3C218.7 338 220.5 337.5 222.2 336.5L219.7 340.9H223.5L229.3 330.8C235.1 323.6 237.7 324.5 236 327.3L231.1 335.8C229.5 338.6 230.6 341.2 233.7 341.2C236.8 341.2 240.4 337.9 243.5 334.2C243.4 334.2 242.8 333.6 242.3 333.4ZM360.9 297.8C358.6 301.5 356.3 303.3 354.7 303.3C353.9 303.3 353.4 302.7 354.3 301.2L359.6 292C361.6 288.5 365.7 289.4 363.8 292.8L360.9 297.8ZM324.7 298C322.4 301.6 320.2 303.3 318.6 303.3C317.8 303.3 317.3 302.7 318.2 301.2L323.5 292C325.5 288.5 329.6 289.4 327.7 292.8L324.7 298ZM284.8 311.8C284 313.2 282.7 313 282.7 312C282.7 311 283.6 309.9 286.5 308.8L284.8 311.8ZM292.8 283.3C293.9 281.4 295.2 280.5 296.2 280.5C302.2 280.5 297.7 294.9 288.1 292.7H287.3L292.8 283.3ZM370.5 297.4L370.2 297.7C367.5 300.9 364.8 303.4 363.2 303.4C362.4 303.4 361.9 302.8 362.8 301.3L375.6 279.2H371.8L366.2 288.8C365.5 287.7 364.3 286.8 362.7 286.8C360.7 286.8 357.8 288.4 356.2 291.2L352.5 297.6C352.4 297.6 352.3 297.5 352.3 297.5L352 297.8C349.3 301 347 303.5 345.3 303.5C344.5 303.5 344 302.9 344.9 301.4L350.4 291.8C352 288.9 350.5 286.9 348.4 286.9C346.8 286.9 345.1 287.8 343.2 289.7L344.6 287.2H340.8L334.8 297.6C334.7 297.5 334.6 297.5 334.4 297.4L334.1 297.7C331.4 300.9 328.7 303.4 327.1 303.4C326.3 303.4 325.8 302.8 326.7 301.3L332.8 290.6H330.7C330.8 289 329.2 286.8 326.7 286.8C324.7 286.8 321.8 288.4 320.2 291.2L316.5 297.5L316.3 297.7C313.6 300.9 310.5 303.4 308.9 303.4C308.1 303.4 307.6 302.8 308.5 301.3L312.3 294.7C313.6 292.4 313 291.1 311.8 289.6L309.7 287.1C309.2 286.4 309.2 285.6 309.9 284.9L307.9 282.8C305.8 284.7 305.6 286.9 306.9 288.6L307.2 289C305.5 291.4 303.3 294.6 300.8 297.5C300.9 297.6 301 297.7 301.1 297.8C298 301.4 295.3 303.7 292.4 305L297.2 296.8H293.4L293 297.5C291 301 288.7 303.5 285.8 303.5C283.2 303.5 282.8 300.9 285 297.1L286.1 295.2C286.8 295.3 287.5 295.4 288.2 295.4C301.6 295.4 308.1 277.4 296.3 277.4C294.2 277.4 291.8 278.9 290.1 281.8L284.2 291.9C282 290.7 280.8 288.6 280.8 286.5C280.8 284.8 281.6 283 283.2 281.7L282 279.5C279.3 281.4 278.1 284 278.1 286.5C278.1 289.5 279.8 292.4 282.9 294L281.8 296C279.1 300.6 279.6 305.7 285 305.7C286.6 305.7 287.9 305.2 289.1 304.5L288.1 306.2C283 307.8 279.8 309.8 279.8 312.7C279.8 316.3 285.4 317.1 288.1 312.4L291 307.4C294.9 306.2 298.8 303.5 302.9 298.7C302.8 298.6 302.8 298.5 302.7 298.3C304.4 296.3 305.8 294.4 308.7 290.6L309.2 291.2C309.7 291.8 309.9 292.6 309.4 293.3L305.4 300.2C303.8 303 304.9 305.6 308 305.6C309.9 305.6 312.3 304.4 314.4 302.6C314.4 304.3 315.5 305.6 317.7 305.6C319.2 305.6 321.1 304.6 322.9 303.1C323.1 304.6 324.2 305.6 326.2 305.6C328 305.6 330 304.5 331.9 302.8L330.5 305.2H334.3L340.1 295.1C345.9 287.9 348.5 288.8 346.8 291.6L341.9 300.1C340.3 302.9 341.4 305.5 344.5 305.5C346.5 305.5 348.3 304.1 350.5 302.2C350.3 304.1 351.5 305.5 353.8 305.5C355.3 305.5 357.2 304.5 359 303C359.2 304.5 360.3 305.5 362.3 305.5C365.4 305.5 369 302.2 372.1 298.5C371.6 298.2 371 297.6 370.5 297.4ZM258.2 292.1C260.4 288.4 264.2 289 262 292.9L261.5 293.8C259.7 296.9 257.2 296.8 255.8 296.3L258.2 292.1ZM255.2 305.7C259.5 305.7 263.7 302.4 266.9 298.7C266.6 298.2 266 297.6 265.5 297.4L265.2 297.7C262.5 300.9 259 303.4 256.3 303.4C254 303.4 252.6 301.9 254.3 298.9L254.7 298.2C257.1 299.2 261.7 298.7 264.5 293.8L265 292.9C267 289.4 265.1 286.8 262 286.8C259 286.8 256.5 288.4 254.9 291.2L251.2 297.5C251.2 297.5 251.1 297.5 251.1 297.4L250.8 297.7C248.1 300.9 245.4 303.4 243.8 303.4C243 303.4 242.5 302.8 243.4 301.3L248.8 291.7C250.4 288.8 248.9 286.8 246.8 286.8C245.2 286.8 243.4 287.7 241.5 289.7L247.5 279.2H243.7L233 297.7C232.9 297.6 232.7 297.5 232.6 297.4L232.3 297.7C229.6 300.9 226.9 303.4 225.3 303.4C224.5 303.4 224 302.8 224.9 301.3L233 287.2H236.1L237.2 285.4H234.1L237.7 279.2H233.9L230.3 285.4H226.9L225.8 287.2H229.2L221.6 300.4C220 303.2 221.1 305.8 224.2 305.8C226.1 305.8 228.1 304.6 230.1 302.8L228.6 305.4H232.4L238.1 295.4C243.9 288.1 246.5 289 244.9 291.8L240 300.3C238.4 303.1 239.5 305.7 242.6 305.7C244.9 305.7 247.4 303.9 249.9 301.5C250.1 303.9 252.1 305.7 255.2 305.7ZM127.7 292.1C129.9 288.4 133.7 289 131.5 292.9L131 293.8C129.2 296.9 126.7 296.8 125.3 296.3L127.7 292.1ZM150.8 301.3L156.1 292.1C158.1 288.6 162.2 289.5 160.3 292.9L157.4 298.1C155.1 301.7 152.9 303.4 151.3 303.4C150.4 303.3 149.9 302.8 150.8 301.3ZM204.8 292.1C207 288.4 210.8 289 208.6 292.9L208.1 293.8C206.3 296.9 203.9 296.8 202.4 296.3L204.8 292.1ZM147 301.6C146.4 303.8 147.6 305.7 150.1 305.7C151.6 305.7 153.5 304.7 155.3 303.2C155.5 304.7 156.6 305.7 158.6 305.7C160.6 305.7 162.8 304.3 165 302.4C164.6 304.4 165.5 305.7 167.4 305.7C169.5 305.7 171.8 303.8 173.6 302.1C173.2 304.1 174.4 305.7 176.8 305.7C179.9 305.7 183.5 302.4 186.6 298.7C186.6 298.7 186.5 298.6 186.5 298.5C188.6 296.1 190.4 293.5 191.7 291.7C190.2 295.6 191 302.7 187.4 302.7C186.1 302.7 185.6 301.3 185.6 301.3L183.2 302.5C183.2 302.5 183.9 305.6 187.3 305.6C187.7 305.6 188 305.6 188.4 305.5H188.5C191.3 305.1 194 303.4 196.4 301.3C196.5 303.8 198.4 305.6 201.5 305.6C205.8 305.6 210 302.3 213.2 298.6C212.9 298.1 212.3 297.5 211.8 297.3L211.5 297.6C208.8 300.8 205.3 303.3 202.6 303.3C200.3 303.3 198.9 301.8 200.6 298.8L201 298.1C203.4 299.1 208 298.6 210.8 293.7L211.3 292.8C213.3 289.3 211.4 286.7 208.3 286.7C205.2 286.7 202.8 288.3 201.2 291.1L197.5 297.4H197.4L197.1 297.7C195.8 299.3 194.2 300.6 192.6 301.8C193.8 298.2 193.5 292.7 195.9 287.8L193.1 286.3C191.5 288.4 188.1 293.4 184.7 297.4L184.8 297.5L184.7 297.7C182 300.9 179.3 303.4 177.7 303.4C176.9 303.4 176.4 302.8 177.3 301.3L185.4 287.2H181.6L174.9 298.9C172 301.5 169.8 303 169.1 302.6C168.2 302.2 169.1 300.8 169.6 300L177 287.1H173.2L167.2 297.5C167.1 297.4 167 297.4 166.9 297.3L166.6 297.6C163.9 300.8 161.2 303.3 159.6 303.3C158.8 303.3 158.3 302.7 159.2 301.2L165.3 290.5H163.2C163.3 288.9 161.7 286.7 159.2 286.7C157.2 286.7 154.3 288.3 152.7 291.1L148.9 297.7C148.7 297.6 148.5 297.4 148.3 297.3L148 297.6C145.3 300.8 142.1 303.3 139.5 303.3C137.2 303.3 135.8 301.8 137.5 298.8L141.4 292C143.6 288.3 147.4 288.9 145.2 292.8L144.7 293.7H147.8L148.3 292.8C150.3 289.3 148.4 286.7 145.3 286.7C142.2 286.7 140.2 288.3 138.6 291.1L134.8 297.5C134.7 297.4 134.6 297.4 134.5 297.3L134.2 297.6C131.5 300.8 128.3 303.3 125.6 303.3C123.3 303.3 121.9 301.8 123.6 298.8L124 298.1C126.4 299.1 131 298.6 133.8 293.7L134.3 292.8C136.3 289.3 134.4 286.7 131.3 286.7C128.2 286.7 125.8 288.3 124.2 291.1L120.2 297.9C117.8 301.9 119.9 305.6 124.3 305.6C127.6 305.6 130.3 303.6 133.1 301C133 303.6 135 305.6 138.2 305.6C141.6 305.7 144.3 303.9 147 301.6ZM110.1 287.6L113.2 282.4C116 277.6 119.5 280.4 117.6 284C116.1 286.7 114 287.6 110.1 287.6ZM106 304.9C103.7 304.9 102 304.4 100.6 303.6C101.3 302.8 101.9 301.9 102.5 300.9L108.9 289.9L109.9 290C118.7 291.8 115.2 304.9 106 304.9ZM115.4 289.4C123 286.8 123.6 277.3 116.1 277.3C114 277.3 111.6 278.8 109.9 281.7L99.7 299.3C99.3 300.1 98.8 300.8 98.2 301.4C95.6 297.8 96.3 292.4 100 290.1L98.5 288.2C90.6 293.2 92.9 307.8 106.1 307.8C117.4 307.8 122.6 294.2 115.4 289.4Z" fill="white"/>
</svg>
